<svg width="112" height="35" viewBox="0 0 112 35" fill="none" xmlns="http://www.w3.org/2000/svg">
<g clip-path="url(#clip0_78_16044)">
<path d="M20.5139 25.8909C23.8668 25.8909 27.1977 25.8909 30.5274 25.8909C30.5688 25.7538 30.5831 10.0566 30.539 9.7735C30.4794 9.76962 30.4172 9.76316 30.3537 9.76316C27.3533 9.76316 24.3542 9.76187 21.3538 9.76316C21.0919 9.76316 20.8314 9.7735 20.5774 9.84978C19.8049 10.0825 19.245 10.6423 19.1375 11.6132C18.9923 12.9189 19.9579 13.8238 21.1153 13.8678C22.0523 13.9027 22.8702 13.2873 23.1333 12.4276C23.154 12.3591 23.1734 12.2906 23.1955 12.2117C23.8422 12.2117 24.4851 12.2117 25.1603 12.2117C25.1085 12.4586 25.0722 12.6965 25.0061 12.9254C24.5719 14.4366 23.1877 15.5821 21.6233 15.7721C19.4965 16.0307 17.6522 14.5064 17.2556 12.5608C16.8356 10.4962 18.2198 8.41477 20.2845 7.97263C20.9909 7.82137 21.7063 7.76061 22.4256 7.75156C23.0399 7.7451 23.6543 7.76966 24.2686 7.77613C25.6412 7.79164 27.0137 7.80845 28.3849 7.8162C29.6136 7.82267 30.8423 7.81749 32.071 7.81879C32.22 7.81879 32.3678 7.82525 32.5285 7.82913C32.5285 16.8942 32.5285 25.94 32.5285 34.9986C21.7322 34.9986 10.9398 34.9986 0.135742 34.9986C0.135742 33.3594 0.135742 31.7266 0.135742 30.0925C0.270534 30.0511 1.74287 30.0356 2.09152 30.0756C2.10318 30.5643 2.0954 31.0569 2.0967 31.5494C2.098 32.0381 2.0967 32.5255 2.0967 32.9961C2.11744 33.0181 2.12133 33.0232 2.12521 33.0271C2.1304 33.031 2.13558 33.0375 2.14077 33.0375C11.5645 33.0413 20.9883 33.0439 30.4133 33.0465C30.4509 33.0465 30.4898 33.0426 30.5248 33.04C30.5649 32.8888 30.5753 28.1455 30.5364 27.8882C30.4833 27.8843 30.4263 27.8766 30.3692 27.8766C26.9709 27.8766 23.5726 27.8766 20.173 27.8727C20.0421 27.8727 19.9786 27.9154 19.919 28.0291C19.3332 29.1435 18.4791 29.9735 17.2983 30.4415C15.2168 31.2676 12.6804 30.5579 11.387 28.7906C10.8141 28.0072 10.5134 27.1229 10.424 26.1623C10.3307 25.1721 10.4823 24.2206 10.9398 23.3363C11.7641 21.7423 13.0822 20.8321 14.8656 20.6046C15.8571 20.4792 16.7955 20.6757 17.6677 21.1476C19.1647 21.9594 20.1212 23.1863 20.4452 24.8721C20.4919 25.1139 20.4919 25.3647 20.51 25.6103C20.5191 25.6969 20.5139 25.7823 20.5139 25.8909ZM15.4035 28.841C17.1804 28.8358 18.5944 27.4357 18.5892 25.6866C18.584 23.918 17.1713 22.5244 15.3879 22.5244C13.6771 22.5257 12.2566 23.9594 12.2631 25.6801C12.2696 27.4254 13.681 28.8449 15.4035 28.841Z" fill="white"/>
<path d="M2.10057 1.96884C2.10057 5.20213 2.10057 8.41216 2.10057 11.6338C1.4331 11.6338 0.791541 11.6338 0.137024 11.6338C0.137024 7.75929 0.137024 3.8977 0.137024 0.0361015C0.278296 -0.00268251 32.2459 -0.0156105 32.5285 0.0231735C32.5285 0.661817 32.5285 1.30305 32.5285 1.96884C27.4518 1.96884 22.3828 1.96884 17.3139 1.96884C12.2514 1.96884 7.18896 1.96884 2.10057 1.96884Z" fill="white"/>
<path d="M9.0307 25.8999C9.0307 26.5592 9.0307 27.2005 9.0307 27.8546C6.3245 27.8546 3.62867 27.8546 0.913394 27.8546C0.88488 27.79 0.851183 27.7215 0.825261 27.6504C0.507723 26.8113 0.321089 25.94 0.196666 25.0544C0.0255842 23.8237 -0.00940978 22.5865 0.0437292 21.348C0.0981643 20.0668 0.336642 18.8257 0.906914 17.6635C1.04689 17.3778 1.21279 17.1037 1.37998 16.8309C1.52384 16.5982 1.57698 16.5879 1.82713 16.7107C2.794 17.1839 3.76087 17.6609 4.72644 18.1354C5.37707 18.4547 6.02899 18.7701 6.67573 19.0972C6.82089 19.1709 6.93495 19.167 7.07492 19.0881C8.70668 18.1806 10.341 17.2782 11.9754 16.3746C12.0272 16.3461 12.0791 16.319 12.1296 16.2892C12.21 16.2414 12.2903 16.2414 12.372 16.2841C12.4471 16.3228 12.5236 16.3616 12.5988 16.4004C15.5499 17.913 18.5011 19.4256 21.451 20.9394C21.4976 20.9627 21.543 20.9886 21.5896 21.0118C21.6739 21.0545 21.7154 21.1204 21.7089 21.2174C21.7024 21.3195 21.6985 21.4217 21.6933 21.5406C21.5948 21.5121 21.5145 21.4915 21.4354 21.4656C18.527 20.5102 15.6186 19.5561 12.7115 18.5969C12.5236 18.5348 12.3707 18.5426 12.1918 18.637C10.4836 19.5393 8.76889 20.4301 7.06067 21.3337C6.88051 21.4294 6.73924 21.4372 6.5539 21.3415C5.26172 20.6705 3.96435 20.0112 2.66828 19.3493C2.39481 19.2097 2.33778 19.2226 2.2652 19.5277C2.19521 19.8173 2.15633 20.1159 2.12393 20.4133C2.01376 21.432 1.98265 22.4546 2.04357 23.4785C2.08764 24.2012 2.16799 24.92 2.30538 25.631C2.35203 25.8754 2.37925 25.8986 2.6281 25.8986C4.25597 25.9012 5.88254 25.9012 7.5104 25.9025C7.94848 25.9025 8.38655 25.9038 8.82333 25.9051C8.88813 25.8999 8.95293 25.8999 9.0307 25.8999Z" fill="white"/>
<path d="M78.4769 16.1665C78.482 16.0424 78.4911 15.9416 78.4911 15.8408C78.4924 13.5965 78.4937 11.3522 78.4898 9.10785C78.4898 8.87127 78.4756 8.63081 78.4328 8.3994C78.3408 7.90943 78.088 7.68965 77.5903 7.63535C77.4478 7.61984 77.3026 7.62113 77.1328 7.61337C77.1289 7.52029 77.125 7.43497 77.1199 7.33154C78.3537 7.33154 79.5617 7.33154 80.8098 7.33154C80.815 7.68448 80.8214 8.02707 80.8266 8.41232C81.6457 7.76851 82.5776 7.73878 83.4978 7.73231C85.9656 7.71421 88.4333 7.71292 90.8997 7.73231C92.2049 7.74265 93.3571 8.17316 94.2864 9.12207C94.6985 9.54223 95.007 10.0309 95.2066 10.5816C95.5967 11.656 95.633 12.7432 95.2934 13.8382C95.0355 14.6708 94.5624 15.3611 93.8923 15.9196C93.8133 15.9856 93.7329 16.0489 93.615 16.1446C93.7213 16.1614 93.7835 16.1782 93.847 16.1795C95.226 16.1808 96.605 16.1808 97.984 16.1795C98.1292 16.1795 98.2731 16.164 98.4182 16.1497C99.2542 16.0657 99.7817 15.6003 100.047 14.8233C100.226 14.301 100.321 13.7619 100.316 13.2099C100.312 12.6488 100.34 12.0929 100.479 11.5474C100.873 9.99859 101.829 8.89713 103.285 8.27917C104.901 7.5914 106.573 7.54227 108.23 8.14859C109.977 8.78724 110.977 10.0775 111.33 11.8783C111.502 12.7613 111.49 13.6469 111.287 14.526C110.907 16.1704 109.92 17.3223 108.36 17.9364C106.86 18.5285 105.309 18.588 103.759 18.1057C102.607 17.7476 101.705 17.0521 101.07 16.0205C101.027 15.9506 100.982 15.8834 100.933 15.8071C100.9 15.8304 100.869 15.8421 100.856 15.864C100.452 16.5479 99.8089 16.8349 99.0559 16.9332C98.8926 16.9552 98.7254 16.9603 98.5595 16.9603C90.4837 16.9616 82.4065 16.9552 74.3307 16.9681C73.0709 16.9694 72.1572 16.4122 71.4534 15.4245C71.4353 15.3999 71.4171 15.3741 71.3977 15.3495C71.3912 15.3417 71.3809 15.3366 71.3173 15.2745C71.2746 15.3443 71.2435 15.4245 71.189 15.4827C70.3544 16.3682 69.3097 16.8155 68.1122 16.9293C67.8141 16.9577 67.5121 16.959 67.2114 16.959C66.1745 16.9629 65.1377 16.9603 64.1008 16.9603C63.9894 16.9603 63.8779 16.9603 63.7548 16.9603C63.7548 16.6875 63.7548 16.4535 63.7548 16.1795C63.8792 16.1795 63.9894 16.1795 64.0995 16.1795C65.0534 16.1795 66.0073 16.1859 66.9612 16.1756C67.2386 16.173 67.5224 16.1484 67.7933 16.089C68.545 15.9235 69.092 15.4736 69.473 14.8143C69.7724 14.2946 69.9293 13.7296 69.9941 13.1388C70.0861 12.3011 70.0796 11.4659 69.8385 10.6489C69.5819 9.78269 69.0985 9.09492 68.2171 8.7756C67.3462 8.46016 66.461 8.49119 65.6004 8.81568C64.9329 9.06778 64.5804 9.59912 64.4352 10.2791C64.4067 10.411 64.3859 10.5429 64.3613 10.6747C64.36 10.6838 64.351 10.6902 64.3341 10.7135C64.2343 10.7135 64.1241 10.7135 63.9984 10.7135C63.9868 10.6618 63.9673 10.6127 63.9686 10.5648C63.9777 10.1305 63.9751 9.69608 64.0049 9.26299C64.0516 8.58815 64.4183 8.13437 65.0327 7.86935C65.4176 7.70387 65.8259 7.6263 66.2393 7.5914C67.0986 7.519 67.9553 7.48539 68.8069 7.67543C70.9363 8.15247 72.3801 9.92878 72.4009 12.1123C72.406 12.6915 72.3879 13.272 72.5162 13.8408C72.5668 14.0619 72.6264 14.2829 72.708 14.4937C73.067 15.4077 73.7462 15.9403 74.7105 16.111C74.9334 16.151 75.1641 16.1717 75.3909 16.1743C76.3552 16.1808 77.3195 16.1782 78.2837 16.1769C78.333 16.1782 78.3835 16.1717 78.4769 16.1665ZM80.8189 16.1795C80.9679 16.1795 81.0599 16.1795 81.1519 16.1795C84.1692 16.1795 87.1865 16.1808 90.2037 16.1782C91.4816 16.1769 92.398 15.5447 92.8555 14.3553C93.1238 13.6585 93.1951 12.9332 93.1821 12.1925C93.1704 11.5241 93.0823 10.8725 92.8036 10.2597C92.4356 9.44786 91.8147 8.94496 90.9308 8.7937C90.6573 8.74716 90.3748 8.73035 90.0961 8.72906C87.9084 8.72389 85.7206 8.72389 83.5328 8.72906C83.2231 8.73035 82.9094 8.74716 82.6048 8.79629C81.4734 8.98116 80.8202 9.75813 80.8202 10.9036C80.8189 12.5377 80.8202 14.1718 80.8202 15.8059C80.8189 15.9183 80.8189 16.0295 80.8189 16.1795ZM109.09 13.3159C109.072 13.0108 109.06 12.6398 109.025 12.2687C108.941 11.3793 108.67 10.5558 108.145 9.82018C107.508 8.92427 106.655 8.5067 105.554 8.61788C104.68 8.70579 103.981 9.0988 103.488 9.83441C103.198 10.2675 102.989 10.7381 102.87 11.2461C102.694 11.9986 102.678 12.7587 102.742 13.5254C102.83 14.6061 103.205 15.577 103.873 16.4277C104.634 17.396 105.643 17.692 106.812 17.3831C107.952 17.0818 108.576 16.2454 108.902 15.1659C109.076 14.5867 109.067 13.9817 109.09 13.3159Z" fill="white"/>
<path d="M3.64032 14.6228C3.71031 14.5711 3.77511 14.5207 3.8438 14.4741C4.43352 14.0734 5.08674 13.8096 5.76718 13.617C6.46446 13.4192 7.16953 13.2524 7.86811 13.0637C8.15195 12.9874 8.4319 12.8982 8.70796 12.7999C9.13048 12.65 9.50505 12.4121 9.85499 12.1342C10.5147 11.6093 11.0811 10.9978 11.5269 10.2842C11.8432 9.77479 12.1348 9.24991 12.4316 8.72891C12.7323 8.20274 13.0226 7.67011 13.3246 7.14394C14.2759 5.4814 15.7262 4.50404 17.5705 4.06837C18.1252 3.9378 18.6903 3.86798 19.2567 3.83696C19.8827 3.80205 20.51 3.78137 21.136 3.78007C24.822 3.7749 28.5068 3.7762 32.1928 3.7749C32.2822 3.7749 32.373 3.7749 32.4753 3.7749C32.4753 4.43682 32.4753 5.07805 32.4753 5.74125C32.3807 5.74125 32.2978 5.74125 32.2148 5.74125C28.118 5.73996 24.0211 5.73867 19.9229 5.73737C19.3474 5.73737 18.7746 5.7503 18.2056 5.85373C16.8784 6.09548 15.8351 6.77291 15.0613 7.8692C14.666 8.43028 14.3459 9.03531 14.0361 9.6468C13.7315 10.2454 13.427 10.8439 13.0576 11.4063C12.4951 12.2621 11.8393 13.0352 11.0176 13.6584C10.1557 14.3112 9.18492 14.7236 8.13899 14.9835C7.37301 15.1735 6.61481 15.3959 5.85401 15.6079C5.71015 15.648 5.57147 15.7075 5.4302 15.7579C5.31873 15.7979 5.21375 15.7902 5.11525 15.7178C4.64089 15.3713 4.16523 15.0274 3.68957 14.681C3.67272 14.6706 3.66365 14.6525 3.64032 14.6228Z" fill="white"/>
<path d="M40.3879 17.4811C40.3711 18.0887 40.4035 18.6679 40.524 19.2458C40.6445 19.8211 40.8674 20.3472 41.2096 20.8269C41.5518 21.3065 42.0313 21.6387 42.5083 21.9762C42.494 22.0072 42.4798 22.0382 42.4655 22.0705C42.3592 22.0705 42.2465 22.0912 42.1454 22.0667C41.1007 21.8133 40.1494 21.3815 39.3783 20.6084C38.8313 20.0602 38.4775 19.4009 38.2623 18.6653C38.2312 18.558 38.2274 18.4403 38.2274 18.3279C38.2286 16.4766 38.1781 14.624 38.2507 12.7753C38.331 10.7094 39.2837 9.12701 41.2278 8.27893C42.7986 7.59375 44.4291 7.55238 46.053 8.11475C47.8235 8.72883 48.8539 10.0035 49.2323 11.8135C49.4293 12.7572 49.4176 13.7087 49.1649 14.6421C48.7048 16.346 47.6394 17.5095 45.9507 18.0577C44.6105 18.4921 43.2457 18.5412 41.8758 18.1753C41.3807 18.0435 40.931 17.8133 40.5084 17.5263C40.4864 17.5095 40.4553 17.5044 40.3879 17.4811ZM47.0044 13.2808C46.9914 13.0649 46.9733 12.7456 46.9512 12.4249C46.889 11.4993 46.6142 10.6461 46.0945 9.87037C45.2689 8.63962 44.0143 8.34487 42.774 8.78183C41.7319 9.14899 41.1552 9.95699 40.8584 10.9874C40.6056 11.8665 40.5888 12.7637 40.6756 13.6634C40.778 14.7197 41.1785 15.6621 41.8408 16.4908C42.9775 17.9155 44.8866 17.6272 45.7368 16.8722C46.2682 16.4003 46.6505 15.8341 46.8268 15.1398C46.972 14.5632 46.9862 13.975 47.0044 13.2808Z" fill="white"/>
<path d="M62.1619 7.66357C62.1619 7.79803 62.1619 7.87818 62.1619 7.95833C62.123 7.97255 62.0945 7.98936 62.066 7.99324C61.8703 8.01263 61.6733 8.01522 61.4802 8.04883C61.1652 8.10442 60.9475 8.29834 60.8814 8.60732C60.8217 8.88786 60.7906 9.17874 60.7893 9.46574C60.7829 12.0604 60.7855 14.655 60.7855 17.2497C60.7855 17.6957 60.7556 18.1366 60.6364 18.5696C60.4303 19.3221 60.0247 19.9426 59.4194 20.4352C58.6016 21.1009 57.6308 21.4151 56.6212 21.6349C56.533 21.6543 56.4332 21.6194 56.3399 21.609C56.3347 21.5857 56.3283 21.5625 56.3231 21.5379C56.3814 21.4875 56.4332 21.4267 56.498 21.3892C57.5375 20.7829 58.0935 19.8469 58.3074 18.6989C58.3994 18.2038 58.4085 17.6931 58.4525 17.1889C58.4577 17.1295 58.4447 17.07 58.437 16.9717C58.3113 16.9717 58.2011 16.973 58.0896 16.9717C57.3962 16.9575 56.7002 16.9717 56.0081 16.9239C54.7808 16.8386 53.6234 16.505 52.5865 15.8237C51.6637 15.2161 50.9962 14.4146 50.7266 13.3209C50.3197 11.6661 50.9081 10.0268 52.2806 9.00679C53.0855 8.40823 54.0031 8.0721 54.9778 7.87042C55.6802 7.72563 56.3905 7.66357 57.1085 7.66487C58.6625 7.66616 60.2178 7.66487 61.7718 7.66487C61.8962 7.66357 62.018 7.66357 62.1619 7.66357ZM58.4059 16.2646C58.4149 16.156 58.424 16.0952 58.424 16.0345C58.4253 13.6971 58.4253 11.361 58.424 9.0236C58.424 8.78443 58.4201 8.77797 58.1726 8.7185C57.1176 8.4664 56.0703 8.49872 55.0542 8.88269C53.9085 9.31707 53.2216 10.1574 52.9753 11.3545C52.8729 11.8548 52.86 12.3564 52.9079 12.8658C53.057 14.4766 54.0679 15.7022 55.6323 16.1133C55.9783 16.2038 56.3451 16.2413 56.7041 16.2568C57.2601 16.2814 57.8187 16.2646 58.4059 16.2646Z" fill="white"/>
<path d="M55.9071 26.8812C56.1378 26.8812 56.349 26.8812 56.581 26.8812C56.581 26.7713 56.5823 26.6717 56.581 26.5722C56.5655 25.7435 57.0282 25.1424 57.8356 24.9575C58.3061 24.8502 58.7779 24.8644 59.2833 24.9691C59.2833 25.5974 59.2833 26.2231 59.2833 26.8838C59.6203 26.9057 59.9197 26.9316 60.2463 26.8514C60.2463 25.8547 60.2463 24.876 60.2463 23.8806C60.5638 23.7681 60.8619 23.6634 61.1873 23.5483C61.1873 24.739 61.2002 25.8857 61.1808 27.0311C61.173 27.4513 60.906 27.7086 60.4913 27.7978C60.3604 27.8262 60.2243 27.843 60.0921 27.8443C58.6729 27.8482 57.2524 27.8469 55.8332 27.8456C55.8034 27.8456 55.7723 27.8391 55.7256 27.8327C55.7023 27.7525 55.6777 27.6685 55.6478 27.5625C55.3588 27.7952 55.0374 27.8469 54.6991 27.8469C52.8444 27.8469 50.9898 27.8469 49.1338 27.8469C49.0832 27.8469 49.0314 27.8417 48.9471 27.8366C48.9018 27.5418 48.9329 27.2483 48.929 26.9238C49.4941 26.8708 50.0501 26.9329 50.6152 26.8864C50.6748 26.6433 50.6541 26.408 50.61 26.1766C50.5789 26.0124 50.4726 25.8883 50.3028 25.865C50.1421 25.8431 49.9749 25.8495 49.8116 25.8599C49.6794 25.8689 49.5485 25.9025 49.3956 25.9297C49.3956 25.6388 49.3956 25.3647 49.3956 25.0532C49.9101 24.8877 50.4363 24.7752 50.969 25.0364C51.3254 25.2109 51.4978 25.5237 51.5471 25.9025C51.5872 26.2193 51.5989 26.5386 51.6248 26.8799C51.9164 26.8799 52.2094 26.8799 52.5295 26.8799C52.5295 26.3563 52.5295 25.8431 52.5295 25.3001C52.8393 25.1863 53.1373 25.0777 53.4562 24.9614C53.4756 25.0803 53.4912 25.1773 53.5093 25.2936C53.661 25.229 53.8009 25.1669 53.9422 25.11C54.2338 24.9937 54.5319 24.9148 54.8508 24.9614C55.386 25.0402 55.7165 25.3272 55.8384 25.8534C55.8863 26.0615 55.8876 26.2826 55.9032 26.4985C55.9135 26.6175 55.9071 26.739 55.9071 26.8812ZM53.5301 26.8915C53.9137 26.8915 54.3038 26.8993 54.6926 26.8876C54.8598 26.8825 54.9531 26.7648 54.9635 26.6019C54.9713 26.4804 54.97 26.3524 54.9428 26.2348C54.8754 25.94 54.7004 25.834 54.4153 25.9349C54.1936 26.0137 53.9811 26.1262 53.7776 26.2438C53.4458 26.4378 53.4445 26.4571 53.5301 26.8915ZM58.3255 25.8767C58.0274 25.8573 57.8447 25.918 57.6995 26.0796C57.5466 26.2516 57.5349 26.4546 57.5984 26.6575C57.6568 26.8437 57.8317 26.8747 57.9989 26.8889C58.1065 26.898 58.2141 26.8902 58.3255 26.8902C58.3255 26.5257 58.3255 26.2012 58.3255 25.8767Z" fill="white"/>
<path d="M71.0284 23.8767C71.3355 23.7681 71.6246 23.6659 71.9564 23.5483C71.9628 23.6892 71.9719 23.7965 71.9719 23.9038C71.9732 24.7726 71.9719 25.64 71.9732 26.5088C71.9732 26.8941 71.9784 26.8992 72.3776 26.8992C72.5124 26.8992 72.6485 26.9031 72.7807 26.8863C73.0256 26.8553 73.1073 26.77 73.1137 26.523C73.1228 26.2231 73.1163 25.9232 73.1163 25.6232C73.1163 25.5108 73.1163 25.3983 73.1163 25.2638C73.4274 25.1527 73.7255 25.0479 74.0599 24.929C74.0599 25.5909 74.0599 26.2166 74.0599 26.8863C74.5122 26.9018 74.9373 26.9186 75.4 26.8669C75.4 26.3989 75.4 25.949 75.4 25.4784C75.7227 25.3621 76.0195 25.2548 76.3617 25.1307C76.3617 25.7383 76.3617 26.3007 76.3617 26.8566C76.6857 26.8979 76.7065 26.885 76.7103 26.6187C76.7155 26.3394 76.7103 26.0602 76.7129 25.781C76.7142 25.6801 76.7233 25.5793 76.7285 25.4668C77.0331 25.3569 77.3221 25.2522 77.6565 25.1307C77.6565 25.7357 77.6565 26.2968 77.6565 26.8954C77.79 26.8811 77.8833 26.8708 78.0025 26.8592C78.0025 26.3175 78.0025 25.8029 78.0025 25.2703C78.3175 25.1565 78.6143 25.0492 78.9538 24.9264C78.9538 25.5935 78.9538 26.2192 78.9538 26.8773C79.3103 26.9044 79.633 26.9173 79.9985 26.8604C80.0257 25.8624 79.9959 24.8747 80.0166 23.8728C80.3238 23.7642 80.6128 23.6608 80.9355 23.547C80.9472 23.6414 80.9615 23.706 80.9615 23.7719C80.9628 24.7855 80.9666 25.7978 80.9615 26.8113C80.9576 27.4603 80.6491 27.7964 80.0063 27.8313C79.6135 27.852 79.2195 27.8352 78.8126 27.8352C78.7918 27.746 78.7711 27.662 78.7439 27.5495C78.3667 27.8572 77.9468 27.8585 77.5061 27.8313C77.4906 27.7486 77.4763 27.6697 77.4569 27.5599C77.0797 27.8417 76.6546 27.8688 76.2049 27.83C76.1893 27.746 76.1764 27.6672 76.1608 27.5818C76.1323 27.587 76.096 27.5831 76.0766 27.5999C75.8834 27.7564 75.6553 27.8288 75.4143 27.8326C74.9179 27.843 74.4215 27.8352 73.9069 27.8352C73.8888 27.7447 73.8732 27.6594 73.8538 27.5586C73.2135 27.9412 72.5227 27.8662 71.8462 27.8119C71.32 27.7693 71.04 27.4435 71.0322 26.9238C71.018 25.9245 71.0284 24.9225 71.0284 23.8767Z" fill="white"/>
<path d="M84.2457 26.9445C84.0241 26.7403 83.8323 26.5528 83.6301 26.377C83.5121 26.2749 83.4551 26.165 83.4603 26.0034C83.4719 25.6647 83.4642 25.3246 83.4642 24.9665C84.0967 24.8088 84.7097 24.6666 85.3474 24.739C86.0835 24.823 86.5074 25.4074 86.344 26.1249C86.287 26.3731 86.1756 26.6071 86.09 26.8489C86.2792 26.9135 86.8469 26.9226 87.018 26.8683C87.202 26.8088 87.2383 26.6653 87.2396 26.5011C87.2422 26.2115 87.2409 25.9219 87.2409 25.6336C87.2409 25.5212 87.2409 25.4087 87.2409 25.2652C87.5455 25.1566 87.8436 25.0519 88.1858 24.9291C88.1858 25.5987 88.1858 26.2309 88.1858 26.8993C88.6083 26.8915 88.9945 26.9355 89.408 26.8618C89.408 26.3266 89.408 25.812 89.408 25.2742C89.7229 25.1605 90.0184 25.0532 90.3424 24.9355C90.3515 25.0454 90.3632 25.123 90.3632 25.2005C90.3645 25.7383 90.3671 26.2749 90.3632 26.8127C90.3593 27.4746 90.0456 27.8107 89.3833 27.8366C88.9388 27.8547 88.4942 27.8404 88.0302 27.8404C88.0121 27.7474 87.9965 27.6633 87.9823 27.5948C86.9882 27.9749 86.0058 27.9452 84.9897 27.5625C84.8588 27.6504 84.6941 27.7409 84.5555 27.8611C84.2444 28.1261 84.2898 28.4804 84.663 28.6549C84.8276 28.7312 85.0169 28.7648 85.1996 28.7906C85.3513 28.8126 85.5094 28.7971 85.6649 28.7919C85.8088 28.7868 85.9513 28.7726 86.1406 28.7596C86.0485 29.0466 85.9747 29.3091 85.8775 29.5637C85.8554 29.6232 85.7595 29.6866 85.6934 29.693C85.2268 29.7331 84.7615 29.7422 84.3118 29.5754C83.2685 29.1862 83.0909 27.9012 83.8582 27.2651C83.9761 27.163 84.0967 27.0661 84.2457 26.9445ZM85.1543 26.4559C85.2411 26.2994 85.324 26.1844 85.3707 26.0551C85.4264 25.9025 85.3681 25.7978 85.2255 25.7254C85.048 25.6362 84.6099 25.6543 84.3727 25.7758C84.6268 25.9982 84.8717 26.2102 85.1543 26.4559Z" fill="white"/>
<path d="M104.998 29.1708C104.759 28.9911 104.52 28.8127 104.279 28.6317C104.302 28.5903 104.31 28.5567 104.332 28.5399C104.738 28.227 104.866 27.7978 104.865 27.3091C104.864 26.7403 104.867 26.1728 104.869 25.6039C104.869 25.5018 104.869 25.3997 104.869 25.2794C105.181 25.1644 105.477 25.0532 105.814 24.9291C105.814 25.5975 105.814 26.2245 105.814 26.8579C106.104 26.9381 106.368 26.8838 106.635 26.8967C106.635 26.7312 106.629 26.5903 106.637 26.4494C106.678 25.6518 107.163 25.0984 107.951 24.9433C108.403 24.8541 108.854 24.8709 109.335 24.9653C109.335 25.5923 109.335 26.218 109.335 26.8735C109.625 26.9187 109.891 26.9109 110.154 26.8825C110.21 26.876 110.276 26.7855 110.298 26.7209C110.324 26.6472 110.307 26.558 110.307 26.4753C110.307 25.7099 110.307 24.9459 110.308 24.1805C110.308 23.8754 110.31 23.8742 110.606 23.7694C110.809 23.6983 111.012 23.6311 111.243 23.5522C111.251 23.6751 111.261 23.763 111.261 23.8522C111.262 24.8127 111.262 25.7746 111.261 26.7351C111.261 26.8075 111.264 26.8799 111.256 26.9523C111.205 27.4681 110.956 27.737 110.443 27.8185C110.281 27.8443 110.113 27.8443 109.948 27.8443C108.684 27.8456 107.421 27.8456 106.156 27.8456C106.043 27.8456 105.93 27.8456 105.798 27.8456C105.698 28.3886 105.523 28.8773 104.998 29.1708ZM108.395 25.8754C107.948 25.8508 107.663 26.0474 107.619 26.3899C107.592 26.6007 107.679 26.7933 107.85 26.8463C108.025 26.9006 108.206 26.9381 108.395 26.8592C108.395 26.5309 108.395 26.2141 108.395 25.8754Z" fill="white"/>
<path d="M3.5535 10.9811C3.58849 10.857 3.61571 10.7574 3.64422 10.6592C3.79197 10.1459 3.93973 9.6327 4.08878 9.11946C4.14062 8.93976 4.16265 8.92684 4.33503 8.9876C5.64406 9.45559 6.9531 9.92488 8.26083 10.3942C8.29064 10.4045 8.31786 10.42 8.33989 10.4304C8.34508 10.4472 8.34897 10.4536 8.34767 10.4601C8.26991 10.8169 8.26991 10.8143 7.90701 10.8285C6.60056 10.879 5.29542 10.9307 3.98898 10.9811C3.85419 10.985 3.7168 10.9811 3.5535 10.9811Z" fill="white"/>
<path d="M4.4361 5.01462C5.09061 4.67202 5.71273 4.34753 6.35299 4.0127C6.96733 5.37531 7.57389 6.71982 8.18823 8.08114C8.0638 8.1419 7.94975 8.19878 7.82662 8.25955C6.70034 7.18135 5.58053 6.10833 4.4361 5.01462Z" fill="white"/>
<path d="M9.74481 3.72827C10.4693 3.86919 11.1523 4.00235 11.8315 4.1355C11.838 4.29581 10.8918 8.01778 10.735 8.45475C10.6145 8.43019 10.4914 8.40562 10.354 8.37848C10.1531 6.83616 9.95218 5.3029 9.74481 3.72827Z" fill="white"/>
<path d="M45.4348 27.83C43.9054 27.83 42.3968 27.83 40.8726 27.83C40.8571 27.7564 40.8402 27.6788 40.8195 27.5818C40.7793 27.6103 40.7378 27.6258 40.7197 27.6555C40.6199 27.8184 40.4877 27.8559 40.2985 27.8249C39.758 27.7383 39.3199 27.5172 39.1735 26.9509C39.0102 26.3213 39.154 25.7499 39.6582 25.3233C39.8552 25.1565 40.1196 25.0441 40.371 24.9704C40.8234 24.8385 41.2887 24.8553 41.776 24.9652C41.776 25.5935 41.776 26.2205 41.776 26.8747C42.0961 26.8747 42.3877 26.8747 42.6923 26.8747C42.6923 26.8061 42.6962 26.7467 42.6923 26.6872C42.6275 25.7512 43.1757 25.0777 44.1089 24.9303C44.5444 24.8618 44.9747 24.8838 45.4037 24.9574C45.4698 25.1772 45.4931 27.2379 45.4348 27.83ZM44.4977 25.8779C44.0506 25.8378 43.7382 26.024 43.6721 26.3563C43.6177 26.6264 43.7447 26.8204 44.0169 26.8721C44.1763 26.9018 44.3383 26.9328 44.4977 26.8604C44.4977 26.5256 44.4977 26.2011 44.4977 25.8779ZM40.8337 25.8727C40.5642 25.8495 40.3646 25.94 40.2142 26.1248C40.0263 26.3563 40.0665 26.7182 40.2959 26.823C40.4605 26.8979 40.6419 26.9367 40.8337 26.8604C40.8337 26.5334 40.8337 26.2179 40.8337 25.8727Z" fill="white"/>
<path d="M93.4128 24.9652C93.4128 25.4474 93.4193 25.9116 93.4115 26.3744C93.405 26.7764 93.3959 27.1798 93.3635 27.5806C93.3052 28.3019 92.9112 28.801 92.2671 29.1474C92.0078 28.9975 91.7434 28.8449 91.4479 28.6743C91.6527 28.5411 91.829 28.439 91.991 28.3175C92.1426 28.2024 92.2943 28.0783 92.3772 27.8676C92.1854 27.8482 92.0234 27.8378 91.864 27.8146C90.9347 27.6762 90.6223 26.9898 90.7753 26.1921C90.9127 25.4811 91.3896 25.0919 92.0778 24.9445C92.5055 24.8515 92.9384 24.8618 93.4128 24.9652ZM92.4472 25.8767C92.188 25.8417 91.9897 25.9374 91.8368 26.121C91.6398 26.3576 91.6981 26.7493 91.9482 26.8359C92.0973 26.8876 92.2632 26.8863 92.4472 26.9109C92.4472 26.5373 92.4472 26.2128 92.4472 25.8767Z" fill="white"/>
<path d="M46.5028 28.6678C46.8942 28.4454 47.2415 28.2606 47.4606 27.8676C47.2817 27.852 47.1326 27.8456 46.9849 27.8249C45.9143 27.6762 45.6927 26.8837 45.8664 26.1158C45.9856 25.5935 46.3122 25.2367 46.8125 25.0467C47.3504 24.8424 47.9012 24.8437 48.4495 24.9575C48.465 24.9924 48.4819 25.0105 48.4819 25.0286C48.4689 25.8857 48.4793 26.7441 48.4326 27.5999C48.3937 28.3084 47.9829 28.8023 47.3413 29.1461C47.0847 29.0001 46.8177 28.8475 46.5028 28.6678ZM47.5254 25.8611C47.2635 25.8611 47.0678 25.9361 46.9201 26.1119C46.7322 26.333 46.7646 26.7118 46.9849 26.8191C47.1508 26.8992 47.3309 26.9329 47.5254 26.8643C47.5254 26.5308 47.5254 26.2128 47.5254 25.8611Z" fill="white"/>
<path d="M63.6602 25.812C63.9764 25.6982 64.2667 25.5948 64.6089 25.4732C64.6089 25.6284 64.6089 25.7473 64.6089 25.865C64.6089 26.0925 64.605 26.32 64.6102 26.5463C64.6154 26.7816 64.6931 26.8863 64.9148 26.8914C65.4423 26.9044 65.9711 26.9044 66.4999 26.8914C66.7254 26.8863 66.8057 26.7854 66.8096 26.5502C66.8161 26.1365 66.8122 25.7241 66.8122 25.3104C66.8122 25.1992 66.8122 25.088 66.8122 24.9548C67.1375 24.9548 67.4317 24.9548 67.7415 24.9548C67.7506 25.0272 67.7687 25.0957 67.7687 25.1656C67.7713 25.662 67.7726 26.1571 67.7687 26.6536C67.7674 26.7764 67.7506 26.9005 67.7298 27.022C67.6702 27.3672 67.4719 27.6038 67.1375 27.715C66.9911 27.7641 66.8356 27.8132 66.6852 27.8145C65.9931 27.8184 65.2971 27.8442 64.6089 27.7861C63.9622 27.7305 63.7042 27.4124 63.6667 26.7686C63.6446 26.4609 63.6602 26.152 63.6602 25.812Z" fill="white"/>
<path d="M94.6584 25.8069C94.95 25.7008 95.2468 25.5935 95.5838 25.4707C95.5838 25.8262 95.5825 26.1326 95.5838 26.439C95.5851 26.8204 95.6563 26.8954 96.0322 26.898C96.478 26.9019 96.9226 26.9032 97.3684 26.8967C97.708 26.8928 97.7858 26.8114 97.7897 26.4714C97.7936 26.068 97.7897 25.6659 97.791 25.2626C97.791 25.1617 97.8 25.0622 97.8065 24.9471C98.1176 24.9471 98.404 24.9471 98.7112 24.9471C98.7228 25.0131 98.7449 25.0803 98.7462 25.1475C98.7488 25.644 98.7514 26.1391 98.7462 26.6355C98.7449 26.7687 98.728 26.9044 98.7034 27.035C98.6399 27.366 98.4507 27.5987 98.1292 27.7086C97.9737 27.7616 97.8078 27.8146 97.6471 27.8159C96.9654 27.821 96.2797 27.8469 95.6019 27.7874C94.9253 27.728 94.6661 27.3996 94.635 26.7235C94.6234 26.4662 94.6324 26.2076 94.6337 25.9491C94.635 25.9103 94.648 25.8702 94.6584 25.8069Z" fill="white"/>
<path d="M102.116 26.9057C102.116 26.6511 102.135 26.4352 102.111 26.2244C102.086 26.0098 101.947 25.8573 101.722 25.8456C101.529 25.8353 101.332 25.8637 101.137 25.8793C101.058 25.8857 100.981 25.9077 100.882 25.9258C100.882 25.6272 100.882 25.3518 100.882 25.0467C101.347 24.8993 101.817 24.7985 102.301 24.9627C102.767 25.1204 103.014 25.4811 103.044 25.9426C103.083 26.5593 103.053 27.1798 103.053 27.821C102.19 27.821 101.324 27.821 100.421 27.821C100.393 27.5327 100.399 27.2406 100.422 26.9057C100.986 26.9057 101.539 26.9057 102.116 26.9057Z" fill="white"/>
<path d="M62.4678 27.6142C62.171 27.7202 61.8755 27.8262 61.5437 27.9451C61.5437 26.5735 61.5437 25.2471 61.5437 23.8767C61.8262 23.7746 62.1321 23.6647 62.4678 23.5444C62.4678 24.9135 62.4678 26.2386 62.4678 27.6142Z" fill="white"/>
<path d="M69.6014 25.2833C69.9137 25.1683 70.2092 25.0584 70.5216 24.942C70.5358 25.0222 70.5527 25.0713 70.5514 25.1204C70.5436 25.9982 70.5384 26.8748 70.5216 27.7526C70.5112 28.2994 70.2948 28.7519 69.858 29.0932C69.8256 29.1178 69.7893 29.1372 69.7388 29.1695C69.499 28.9911 69.2605 28.814 69.0117 28.6291C69.0454 28.5825 69.0635 28.5438 69.0933 28.5205C69.464 28.227 69.6001 27.8314 69.6001 27.3738C69.5988 26.7856 69.6001 26.1973 69.6014 25.6078C69.6014 25.507 69.6014 25.4048 69.6014 25.2833Z" fill="white"/>
<path d="M99.0961 23.8676C99.3877 23.7655 99.6858 23.6608 100.009 23.547C100.009 24.9174 100.009 26.2477 100.009 27.6038C99.8634 27.6607 99.713 27.7215 99.5588 27.777C99.4149 27.8288 99.2685 27.8753 99.0948 27.9335C99.0961 26.5657 99.0961 25.2302 99.0961 23.8676Z" fill="white"/>
<path d="M81.3088 23.8702C81.6017 23.7668 81.8907 23.666 82.1823 23.5638C82.2497 23.803 82.2731 27.0738 82.2134 27.6194C81.9309 27.7215 81.6354 27.8275 81.3088 27.9451C81.3088 26.5709 81.3088 25.2432 81.3088 23.8702Z" fill="white"/>
<path d="M69.0194 27.6181C68.7304 27.7215 68.4336 27.8275 68.1083 27.9439C68.1083 26.5683 68.1083 25.2393 68.1083 23.8715C68.3934 23.7707 68.6915 23.6647 69.0194 23.5483C69.0194 24.92 69.0194 26.2542 69.0194 27.6181Z" fill="white"/>
<path d="M103.377 23.8689C103.674 23.7642 103.963 23.6634 104.254 23.5599C104.319 23.8043 104.341 27.0815 104.284 27.6167C103.999 27.7189 103.702 27.8249 103.377 27.9412C103.377 26.5709 103.377 25.2419 103.377 23.8689Z" fill="white"/>
<path d="M97.0898 24.1663C97.2946 24.3537 97.476 24.5192 97.6795 24.7054C97.476 24.8928 97.2894 25.0648 97.0911 25.247C96.9524 25.1346 96.8267 25.0324 96.6893 24.9213C96.5584 25.0286 96.434 25.1307 96.2927 25.247C96.097 25.0712 95.9052 24.9019 95.6939 24.7118C95.8987 24.5257 96.0866 24.3537 96.2914 24.1663C96.4275 24.2787 96.5519 24.3822 96.6867 24.4946C96.815 24.3899 96.9407 24.2878 97.0898 24.1663Z" fill="white"/>
<path d="M65.3139 24.1637C65.4578 24.2852 65.5744 24.3835 65.7066 24.4947C65.835 24.3899 65.9594 24.2878 66.1058 24.1689C66.3002 24.3421 66.4908 24.5115 66.7059 24.7028C66.4998 24.8928 66.3145 25.0635 66.1149 25.2471C65.9762 25.1346 65.8505 25.0338 65.7105 24.92C65.5809 25.0273 65.4565 25.1294 65.3139 25.2471C65.1195 25.0725 64.929 24.9019 64.7151 24.7106C64.9173 24.5257 65.1053 24.355 65.3139 24.1637Z" fill="white"/>
<path d="M74.5912 28.611C74.3709 28.8114 74.1817 28.9833 73.9886 29.1591C73.8525 29.0454 73.7358 28.9458 73.5971 28.8295C73.4714 28.9316 73.3457 29.0311 73.1889 29.1578C72.9996 28.9846 72.8078 28.8088 72.5953 28.6136C72.8014 28.4287 72.9828 28.2658 73.1889 28.0809C73.3185 28.1869 73.4429 28.2878 73.5842 28.4041C73.7112 28.3033 73.8382 28.2037 73.9873 28.0861C74.1778 28.2516 74.3683 28.4171 74.5912 28.611Z" fill="white"/>
<path d="M87.7127 28.8255C87.5779 28.938 87.4599 29.035 87.3135 29.1578C87.1217 28.982 86.9298 28.8061 86.7173 28.6109C86.9234 28.4261 87.1061 28.2632 87.3096 28.0796C87.4392 28.1843 87.5636 28.2864 87.7062 28.4015C87.8332 28.3007 87.9589 28.2011 88.108 28.0848C88.2985 28.2515 88.489 28.417 88.7106 28.6083C88.4994 28.801 88.3076 28.9768 88.1106 29.1565C87.9732 29.044 87.8552 28.9458 87.7127 28.8255Z" fill="white"/>
<path d="M40.314 23.6478C40.4682 23.7797 40.5836 23.8792 40.708 23.984C40.8467 23.8728 40.9724 23.7719 41.1176 23.6556C41.3133 23.834 41.4986 24.0046 41.7086 24.1947C41.4973 24.3847 41.312 24.5541 41.115 24.7312C40.9776 24.6187 40.8596 24.5218 40.7158 24.4041C40.5927 24.505 40.4682 24.6058 40.3205 24.726C40.13 24.5605 39.9394 24.3951 39.7204 24.2037C39.9226 24.015 40.1131 23.8366 40.314 23.6478Z" fill="white"/>
<path d="M89.5751 28.0731C89.7903 28.2645 89.9808 28.4351 90.1908 28.6226C89.9795 28.8087 89.789 28.9768 89.5803 29.1617C89.382 28.9858 89.1928 28.8165 88.9802 28.6264C89.1785 28.4416 89.3626 28.2709 89.5751 28.0731Z" fill="white"/>
<path d="M105.412 23.6388C105.622 23.8301 105.803 23.9943 106.013 24.1831C105.814 24.3679 105.63 24.5386 105.418 24.7338C105.219 24.5541 105.032 24.3847 104.818 24.1921C105.019 24.0059 105.203 23.834 105.412 23.6388Z" fill="white"/>
</g>
<defs>
<clipPath id="clip0_78_16044">
<rect width="111.429" height="35" fill="white" transform="translate(0.0203857)"/>
</clipPath>
</defs>
</svg>
